<svg width="100%" height="100%" xmlns="http://www.w3.org/2000/svg"><polygon fill="#513b56" stroke="none" points="
                    -71.26,-65.2 
                    65.26,-67.2 
                    68.26,70.2 
                    -68.26,74.2 
                    " transform="translate(587,239.60000000000002) rotate(-1)"></polygon><polygon fill="#5dd39e" stroke="none" points="
                    -116.76,-101.825 
                    100.76,-95.825 
                    97.76,89.825 
                    -100.76,89.825 
                    " transform="translate(526,231.60000000000002) rotate(-1)"></polygon><polygon fill="#513b56" stroke="none" points="
                    -57.260000000000005,-55.20000000000001 
                    55.260000000000005,-59.20000000000001 
                    66.26,62.20000000000001 
                    -56.260000000000005,59.20000000000001 
                    " transform="translate(632,468.6) rotate(0)"></polygon><polygon fill="#513b56" stroke="none" points="
                    -83.36000000000001,-71.075 
                    86.36000000000001,-79.075 
                    94.36000000000001,81.075 
                    -81.36000000000001,74.075 
                    " transform="translate(450,600.6) rotate(0)"></polygon><polygon fill="#348aa7" stroke="none" points="
                    -49.760000000000005,-55.82500000000001 
                    45.760000000000005,-54.82500000000001 
                    46.760000000000005,49.82500000000001 
                    -49.760000000000005,57.82500000000001 
                    " transform="translate(483,193.60000000000002) rotate(1)"></polygon><polygon fill="#348aa7" stroke="none" points="
                    -60.86000000000001,-82.2 
                    59.86000000000001,-80.2 
                    71.86000000000001,74.2 
                    -58.86000000000001,76.2 
                    " transform="translate(415,357.6) rotate(0)"></polygon><polygon fill="#5dd39e" stroke="none" points="
                    -129.46,-106.825 
                    133.46,-108.825 
                    135.46,113.825 
                    -127.46000000000001,117.825 
                    " transform="translate(467,403.6) rotate(-1)"></polygon><polygon fill="#5dd39e" stroke="none" points="
                    -80.06,-73.95 
                    79.06,-76.95 
                    70.06,69.95 
                    -72.06,78.95 
                    " transform="translate(417,180.60000000000002) rotate(-1)"></polygon><polygon fill="#bce784" stroke="none" points="
                    -135.86,-112.45 
                    127.86000000000001,-105.45 
                    133.86,109.45 
                    -117.86000000000001,103.45 
                    " transform="translate(279,463.6) rotate(-1)"></polygon><polygon fill="#348aa7" stroke="none" points="
                    -49.86000000000001,-67.2 
                    53.86000000000001,-75.2 
                    57.86000000000001,64.2 
                    -55.86000000000001,73.2 
                    " transform="translate(333,594.6) rotate(0)"></polygon><polygon fill="#5dd39e" stroke="none" points="
                    -102.56,-89.825 
                    92.56,-91.825 
                    96.56,97.825 
                    -89.56,88.825 
                    " transform="translate(217,256.6) rotate(1)"></polygon><polygon fill="#5dd39e" stroke="none" points="
                    -56.86000000000001,-72.325 
                    49.86000000000001,-74.325 
                    58.86000000000001,66.325 
                    -54.86000000000001,69.325 
                    " transform="translate(626,413.6) rotate(-1)"></polygon><polygon fill="#513b56" stroke="none" points="
                    -70.36000000000001,-79.7 
                    74.36000000000001,-88.7 
                    75.36000000000001,79.7 
                    -70.36000000000001,76.7 
                    " transform="translate(312,584.6) rotate(1)"></polygon><polygon fill="#513b56" stroke="none" points="
                    -56.56000000000001,-51.82500000000001 
                    62.56000000000001,-54.82500000000001 
                    56.56000000000001,49.82500000000001 
                    -62.56000000000001,50.82500000000001 
                    " transform="translate(384,248.60000000000002) rotate(0)"></polygon><polygon fill="#348aa7" stroke="none" points="
                    -60.96000000000001,-64.45 
                    64.96000000000001,-73.45 
                    58.96000000000001,66.45 
                    -60.96000000000001,63.45 
                    " transform="translate(359,559.6) rotate(1)"></polygon><polygon fill="#bce784" stroke="none" points="
                    -63.46000000000001,-56.45000000000001 
                    63.46000000000001,-63.45000000000001 
                    60.46000000000001,65.45000000000002 
                    -59.46000000000001,60.45000000000001 
                    " transform="translate(321,363.6) rotate(0)"></polygon><polygon fill="#525174" stroke="none" points="
                    -114.86000000000001,-104.075 
                    116.86000000000001,-98.075 
                    123.86000000000001,96.075 
                    -112.86000000000001,111.075 
                    " transform="translate(221,216.60000000000002) rotate(1)"></polygon><polygon fill="#513b56" stroke="none" points="
                    -90.76,-93.7 
                    83.76,-110.7 
                    85.76,110.7 
                    -94.76,113.7 
                    " transform="translate(322,318.6) rotate(1)"></polygon><polygon fill="#bce784" stroke="none" points="
                    -70.76,-85.95 
                    69.76,-91.95 
                    80.76,91.95 
                    -79.76,100.95 
                    " transform="translate(389,392.6) rotate(-1)"></polygon><polygon fill="#525174" stroke="none" points="
                    -83.56,-64.2 
                    84.56,-70.2 
                    70.56,65.2 
                    -71.56,74.2 
                    " transform="translate(494,473.6) rotate(1)"></polygon><polygon fill="#5dd39e" stroke="none" points="
                    -117.36000000000001,-108.075 
                    125.36000000000001,-109.075 
                    140.36,117.075 
                    -125.36000000000001,117.075 
                    " transform="translate(492,605.6) rotate(0)"></polygon><polygon fill="#513b56" stroke="none" points="
                    -113.76,-116.575 
                    119.76,-107.575 
                    116.76,107.575 
                    -114.76,104.575 
                    " transform="translate(255,401.6) rotate(-1)"></polygon><polygon fill="#525174" stroke="none" points="
                    -100.46000000000001,-113.7 
                    92.46000000000001,-120.7 
                    101.46000000000001,109.7 
                    -102.46000000000001,113.7 
                    " transform="translate(411,224.60000000000002) rotate(-1)"></polygon><polygon fill="#525174" stroke="none" points="
                    -75.26,-64.2 
                    72.26,-65.2 
                    68.26,74.2 
                    -73.26,66.2 
                    " transform="translate(322,505.6) rotate(0)"></polygon><polygon fill="#525174" stroke="none" points="
                    -134.46,-120.325 
                    134.46,-104.325 
                    123.46000000000001,105.325 
                    -141.46,103.325 
                    " transform="translate(472,178.60000000000002) rotate(1)"></polygon><polygon fill="#513b56" stroke="none" points="
                    -98.16000000000001,-101.575 
                    101.16000000000001,-89.575 
                    86.16000000000001,93.575 
                    -95.16000000000001,91.575 
                    " transform="translate(272,590.6) rotate(1)"></polygon><polygon fill="#bce784" stroke="none" points="
                    -111.56,-110.325 
                    118.56,-119.325 
                    109.56,104.325 
                    -113.56,108.325 
                    " transform="translate(265,218.60000000000002) rotate(0)"></polygon><polygon fill="#bce784" stroke="none" points="
                    -78.86000000000001,-65.575 
                    71.86000000000001,-65.575 
                    75.86000000000001,64.575 
                    -73.86000000000001,77.575 
                    " transform="translate(471,442.6) rotate(0)"></polygon><polygon fill="#5dd39e" stroke="none" points="
                    -73.36000000000001,-70.2 
                    74.36000000000001,-70.2 
                    72.36000000000001,75.2 
                    -74.36000000000001,71.2 
                    " transform="translate(602,598.6) rotate(1)"></polygon><polygon fill="#525174" stroke="none" points="
                    -124.46000000000001,-126.95 
                    129.46,-123.95 
                    123.46000000000001,126.95 
                    -127.46000000000001,104.95 
                    " transform="translate(580,375.6) rotate(0)"></polygon><polygon fill="#5dd39e" stroke="none" points="
                    -59.86000000000001,-73.7 
                    62.86000000000001,-69.7 
                    71.86000000000001,65.7 
                    -65.86000000000001,73.7 
                    " transform="translate(237,261.6) rotate(0)"></polygon><polygon fill="#5dd39e" stroke="none" points="
                    -87.06,-78.075 
                    91.06,-93.075 
                    83.06,78.075 
                    -90.06,90.075 
                    " transform="translate(414,559.6) rotate(1)"></polygon><polygon fill="#513b56" stroke="none" points="
                    -138.36,-100.575 
                    132.36,-103.575 
                    120.36000000000001,109.575 
                    -128.36,121.575 
                    " transform="translate(387,262.6) rotate(0)"></polygon><polygon fill="#525174" stroke="none" points="
                    -57.96000000000001,-71.95 
                    58.96000000000001,-63.95 
                    51.96000000000001,66.95 
                    -49.96000000000001,61.95 
                    " transform="translate(409,613.6) rotate(-1)"></polygon><polygon fill="#5dd39e" stroke="none" points="
                    -94.76,-83.45 
                    83.76,-97.45 
                    84.76,82.45 
                    -78.76,90.45 
                    " transform="translate(207,380.6) rotate(1)"></polygon><polygon fill="#513b56" stroke="none" points="
                    -72.36000000000001,-64.45 
                    68.36000000000001,-67.45 
                    75.36000000000001,65.45 
                    -73.36000000000001,76.45 
                    " transform="translate(227,380.6) rotate(1)"></polygon><polygon fill="#525174" stroke="none" points="
                    -81.36000000000001,-69.95 
                    98.36000000000001,-81.95 
                    87.36000000000001,72.95 
                    -98.36000000000001,68.95 
                    " transform="translate(385,398.6) rotate(0)"></polygon><polygon fill="#5dd39e" stroke="none" points="
                    -87.26,-71.325 
                    81.26,-81.325 
                    79.26,85.325 
                    -82.26,83.325 
                    " transform="translate(173,381.6) rotate(0)"></polygon><polygon fill="#bce784" stroke="none" points="
                    -107.96000000000001,-91.325 
                    106.96000000000001,-90.325 
                    121.96000000000001,108.325 
                    -108.96000000000001,91.325 
                    " transform="translate(497,266.6) rotate(0)"></polygon><polygon fill="#348aa7" stroke="none" points="
                    -84.66000000000001,-80.075 
                    70.66000000000001,-74.075 
                    74.66000000000001,82.075 
                    -73.66000000000001,71.075 
                    " transform="translate(545,317.6) rotate(1)"></polygon><polygon fill="#5dd39e" stroke="none" points="
                    -66.46000000000001,-88.825 
                    70.46000000000001,-79.825 
                    75.46000000000001,88.825 
                    -74.46000000000001,78.825 
                    " transform="translate(539,481.6) rotate(0)"></polygon><polygon fill="#5dd39e" stroke="none" points="
                    -72.66000000000001,-93.95 
                    80.66000000000001,-97.95 
                    82.66000000000001,88.95 
                    -84.66000000000001,97.95 
                    " transform="translate(596,451.6) rotate(-1)"></polygon><polygon fill="#bce784" stroke="none" points="
                    -58.96000000000001,-74.825 
                    61.96000000000001,-79.825 
                    60.96000000000001,67.825 
                    -70.96000000000001,67.825 
                    " transform="translate(395,497.6) rotate(1)"></polygon><polygon fill="#5dd39e" stroke="none" points="
                    -67.96000000000001,-70.575 
                    80.96000000000001,-79.575 
                    70.96000000000001,78.575 
                    -74.96000000000001,67.575 
                    " transform="translate(459,411.6) rotate(1)"></polygon><polygon fill="#bce784" stroke="none" points="
                    -56.760000000000005,-64.45 
                    60.760000000000005,-66.45 
                    58.760000000000005,76.45 
                    -54.760000000000005,67.45 
                    " transform="translate(428,409.6) rotate(1)"></polygon><polygon fill="#513b56" stroke="none" points="
                    -58.46000000000001,-58.95000000000001 
                    61.46000000000001,-58.95000000000001 
                    57.46000000000001,59.95000000000001 
                    -62.46000000000001,55.95000000000001 
                    " transform="translate(471,388.6) rotate(0)"></polygon><polygon fill="#bce784" stroke="none" points="
                    -72.06,-83.575 
                    71.06,-83.575 
                    67.06,74.575 
                    -71.06,78.575 
                    " transform="translate(611,267.6) rotate(1)"></polygon><polygon fill="#525174" stroke="none" points="
                    -53.260000000000005,-48.45000000000001 
                    51.260000000000005,-48.45000000000001 
                    52.260000000000005,48.45000000000001 
                    -54.260000000000005,51.45000000000001 
                    " transform="translate(608,539.6) rotate(0)"></polygon></svg>