<svg width="1127" height="471" viewBox="0 0 1127 471" fill="none" xmlns="http://www.w3.org/2000/svg">
<rect width="1127" height="471" fill="#22252C"/>
<path d="M75 161L112 50.5L135 130L218.5 26V148L320 113.5V211L145.5 203L75 161Z" fill="#D9D9D9"/>
<path d="M580.5 203L476.5 89L347 367.5L489.5 252L476.5 367.5L580.5 203Z" fill="#D9D9D9"/>
<path d="M773 367.5L708.5 161L794.5 113.5L773 367.5Z" fill="#D9D9D9"/>
<path d="M1069 203L1054 50.5L1024.5 26L929.5 44L896 89L918 227.5L939.5 189L957.5 227.5L982 189L1010 211L1037 179L1069 203Z" fill="#D9D9D9"/>
<path d="M1054 367.5L1037 295.5L1054 266L1010 245.5L982 279L1010 295.5L1024.5 361L996 395.5L1010 438L1096 409.5L1087 375L1054 367.5Z" fill="#D9D9D9"/>
<path d="M876.5 295.5L946 334L910 395.5L946 409.5L918 445.5L851 426.5L868 361H826.5L876.5 295.5Z" fill="#D9D9D9"/>
<path d="M580.5 66L670 50.5L611 122.5L580.5 130L529 89L545.5 50.5L580.5 66Z" fill="#D9D9D9"/>
<path d="M50.5 295.5L103 279L93 317.5L112 354.5L39 409.5L50.5 295.5Z" fill="#D9D9D9"/>
<path d="M320 266L231.5 288L218.5 308.5L177.5 295.5V340.5L218.5 334V367.5L264.5 361V395.5L184 409.5V438L320 420V266Z" fill="#D9D9D9"/>
<path d="M588 334L651 302L670 324L611 354.5V375L651 367.5L699.5 340.5L708.5 395.5L626.5 409.5L574 395.5L588 334Z" fill="#D9D9D9"/>
<path d="M611 189L661 161L670 211L637 252L611 189Z" fill="#D9D9D9"/>
<path d="M708.5 66L755 26L740.5 103L708.5 66Z" fill="#D9D9D9"/>
<path d="M436.5 44L385.5 26V66L416 77.5L385.5 89V161L436.5 103V44Z" fill="#D9D9D9"/>
</svg>
